<svg xmlns="http://www.w3.org/2000/svg" width="1000" height="103" xmlns:v="https://vecta.io/nano"><g transform="translate(-.606 .609)"><svg viewBox="0 0 396 41" preserveAspectRatio="xMidYMid meet" height="103" width="1000"><g transform="translate(.24 -.242)"><svg height="41.485" width="395.52"><svg viewBox="0 0 458.292 48.069" height="41.485" width="395.52"><g transform="translate(0 6.643)"><svg height="34.782" width="395.52"><svg height="34.782" width="395.52"><svg height="34.782" width="395.52"><svg width="395.52" viewBox="3.25 -35.5 424.51 37.21" height="34.782"><path d="M27.76-7.01V0H3.25v-35.01h7v28h17.51zm31.25-28v21.02q0 2.91-1.1 5.46-1.1 2.55-3.01 4.44Q53-2.2 50.45-1.1 47.9 0 44.99 0h0q-2.9 0-5.45-1.1-2.56-1.1-4.45-2.99-1.89-1.89-2.99-4.44-1.1-2.55-1.1-5.46h0v-21.02h6.99v21.02q0 1.44.55 2.71.54 1.27 1.5 2.22.95.95 2.23 1.5 1.28.55 2.72.55h0q1.44 0 2.72-.55 1.29-.55 2.24-1.5.95-.95 1.5-2.22.55-1.27.55-2.71h0v-21.02h7.01zM89.33-9.69l3.71 6.1q-2.44 2.1-5.47 3.22Q84.54.76 81.29.76h0Q78.8.76 76.5.11q-2.31-.65-4.32-1.83-2.02-1.19-3.68-2.85-1.66-1.66-2.84-3.67-1.19-2.01-1.83-4.32-.65-2.31-.65-4.8h0q0-2.49.65-4.81.64-2.32 1.83-4.33 1.18-2.02 2.84-3.68 1.66-1.66 3.68-2.84 2.01-1.18 4.32-1.83 2.3-.65 4.79-.65h0q3.25 0 6.28 1.11 3.03 1.11 5.47 3.24h0l-3.71 6.1q-1.54-1.66-3.64-2.55-2.1-.89-4.4-.89h0q-2.32 0-4.34.88-2.03.88-3.54 2.38-1.52 1.5-2.39 3.54-.88 2.04-.88 4.33h0q0 2.3.88 4.31.87 2.01 2.39 3.53 1.51 1.51 3.54 2.39 2.02.88 4.34.88h0q2.3 0 4.4-.89 2.1-.89 3.64-2.55h0zm14.35-4.3h14.01V-21q0-1.44-.55-2.72-.55-1.28-1.5-2.23-.95-.95-2.23-1.5-1.28-.55-2.72-.55h0q-1.44 0-2.73.55-1.28.55-2.23 1.5-.95.95-1.5 2.23-.55 1.28-.55 2.72h0v7.01zM124.7-21V0h-7.01v-7.01h-14.01V0H96.7v-21q0-2.9 1.1-5.45 1.09-2.55 2.99-4.46 1.89-1.9 4.44-3 2.55-1.1 5.46-1.1h0q2.9 0 5.45 1.1 2.55 1.1 4.46 3 1.9 1.91 3 4.46 1.1 2.55 1.1 5.45h0zm4.03-3.51h0q0-2.17.83-4.08.83-1.9 2.25-3.33 1.43-1.43 3.34-2.26 1.9-.83 4.07-.83h0 16.07V-28h-16.07q-.73 0-1.36.27-.64.26-1.11.74-.48.48-.75 1.11-.27.64-.27 1.37h0q0 .73.27 1.38.27.64.75 1.12.47.48 1.11.75.63.26 1.36.26h0 7.01q2.17 0 4.09.82 1.92.82 3.34 2.25 1.43 1.43 2.25 3.34.82 1.92.82 4.09h0q0 2.17-.82 4.08-.82 1.9-2.25 3.33-1.42 1.43-3.34 2.26-1.92.83-4.09.83h0-15.55v-7.01h15.55q.73 0 1.37-.27.63-.26 1.11-.74.47-.48.74-1.11.27-.64.27-1.37h0q0-.73-.27-1.37-.27-.63-.74-1.11-.48-.47-1.11-.74-.64-.27-1.37-.27h0-7.01q-2.17 0-4.07-.83-1.91-.83-3.34-2.26-1.42-1.43-2.25-3.34-.83-1.92-.83-4.09z" fill="#ff4057"/><path d="M180.97-13.99V0h-7.01v-35.01h24.52V-28h-17.51v7h10.5v7.01h-10.5zm28.59 11.5h0q0 .88-.32 1.65-.32.77-.88 1.33-.56.56-1.32.89-.75.33-1.63.33h0q-.86 0-1.63-.33-.77-.33-1.34-.89-.57-.56-.9-1.33-.33-.77-.33-1.65h0q0-.85.33-1.61.33-.76.9-1.32.57-.56 1.34-.89.77-.33 1.63-.33h0q.88 0 1.63.33.76.33 1.32.89.56.56.88 1.32.32.76.32 1.61z" fill="#dcdcdc"/><path d="M219.4-13.99h14.01V-21q0-1.44-.55-2.72-.55-1.28-1.5-2.23-.95-.95-2.23-1.5-1.28-.55-2.72-.55h0q-1.44 0-2.73.55-1.28.55-2.23 1.5-.95.95-1.5 2.23-.55 1.28-.55 2.72h0v7.01zM240.42-21V0h-7.01v-7.01H219.4V0h-6.98v-21q0-2.9 1.1-5.45 1.09-2.55 2.99-4.46 1.89-1.9 4.44-3 2.55-1.1 5.46-1.1h0q2.9 0 5.45 1.1 2.55 1.1 4.46 3 1.9 1.91 3 4.46 1.1 2.55 1.1 5.45h0zm34.13 3.5h0q0 2.41-.62 4.65-.63 2.23-1.77 4.17-1.15 1.94-2.74 3.54-1.59 1.6-3.54 2.75-1.95 1.14-4.19 1.77-2.23.62-4.65.62h0-10.54v-35.01h10.54q2.42 0 4.65.62 2.24.63 4.19 1.77 1.95 1.15 3.54 2.75 1.59 1.6 2.74 3.54 1.14 1.94 1.77 4.17.62 2.24.62 4.66zm-7.01 0h0q0-2.18-.82-4.08-.81-1.91-2.24-3.33-1.43-1.43-3.35-2.26-1.91-.83-4.09-.83h0-3.49v20.99h3.49q2.18 0 4.09-.81 1.92-.82 3.35-2.25 1.43-1.43 2.24-3.35.82-1.91.82-4.08zM293.2-28h-7.01v14.01h7.01q1.44 0 2.71-.55 1.27-.55 2.22-1.5.95-.95 1.5-2.23.55-1.29.55-2.73h0q0-1.44-.55-2.72-.55-1.28-1.5-2.23-.95-.95-2.22-1.5-1.27-.55-2.71-.55h0zm-7.01 20.99V0h-7.01v-35.01h14.02q1.93 0 3.71.5 1.78.5 3.33 1.42 1.55.91 2.83 2.19 1.28 1.29 2.2 2.85.92 1.56 1.42 3.34.5 1.79.5 3.71h0q0 1.81-.45 3.52-.46 1.71-1.3 3.25-.84 1.53-2.06 2.83-1.22 1.29-2.74 2.24h0L304.53 0h-7.45l-3.05-7.06-7.84.05zm32.59-28V0h-7.01v-35.01h7.01zm13.08 21.02h14.02V-21q0-1.44-.55-2.72-.55-1.28-1.5-2.23-.95-.95-2.24-1.5-1.28-.55-2.72-.55h0q-1.44 0-2.72.55-1.28.55-2.23 1.5-.96.95-1.51 2.23-.55 1.28-.55 2.72h0v7.01zM352.88-21V0h-7v-7.01h-14.02V0h-6.98v-21q0-2.9 1.1-5.45 1.1-2.55 2.99-4.46 1.89-1.9 4.44-3 2.56-1.1 5.46-1.1h0q2.91 0 5.46 1.1 2.55 1.1 4.45 3 1.91 1.91 3.01 4.46 1.09 2.55 1.09 5.45h0zm34.08-14.01V0h-7.49l-13.5-23.05V0h-7.01v-35.01h7.5l13.5 23.07v-23.07h7zm40.8 17.65h0q0 2.49-.65 4.8-.65 2.31-1.82 4.32-1.17 2.01-2.83 3.67-1.66 1.66-3.66 2.85-2 1.18-4.32 1.83-2.32.65-4.81.65h0q-2.49 0-4.8-.65-2.31-.65-4.32-1.83-2.02-1.19-3.68-2.85-1.66-1.66-2.84-3.67-1.18-2.01-1.83-4.32-.65-2.31-.65-4.8h0q0-2.49.65-4.81.65-2.32 1.83-4.32 1.18-2 2.84-3.66 1.66-1.66 3.68-2.83 2.01-1.18 4.32-1.82 2.31-.65 4.8-.65h0q2.49 0 4.81.65 2.32.64 4.32 1.82 2 1.17 3.66 2.83 1.66 1.66 2.83 3.66 1.17 2 1.82 4.32.65 2.32.65 4.81zm-6.96 0h0q0-2.29-.88-4.33-.88-2.04-2.38-3.54-1.5-1.5-3.54-2.38-2.04-.88-4.33-.88h0q-2.32 0-4.35.88-2.02.88-3.54 2.38-1.51 1.5-2.39 3.54-.88 2.04-.88 4.33h0q0 2.3.88 4.31.88 2.01 2.39 3.53 1.52 1.51 3.54 2.39 2.03.88 4.35.88h0q2.29 0 4.33-.88 2.04-.88 3.54-2.39 1.5-1.52 2.38-3.53.88-2.01.88-4.31z" fill="#ff4057"/></svg></svg></svg></svg></g><g transform="translate(403.731)"><svg height="48.069" width="54.561"><svg viewBox="6.3 11.5 87.4 77" height="48.069" width="54.561"><path d="M72.3 12.3h0 0l-.4-.8H28.2L6.3 50l21.8 38.5h43.7L93.7 50 72.3 12.3zm-39 13L9.9 47.7l18.6-32.8 4.8 10.4zm37.4-10.5l6.4 35.7-40.2-24.7 33.8-11zM35.5 27.3l41 25.2-41 23.3V27.3zM77 54.5l-7.2 30.8-32.6-8.1L77 54.5zM33.5 75L9.9 50.5l23.6-22.7V75zm-.3 2.6l-4.6 7.7-17.1-30.2 21.7 22.5zm1.8 1l31.4 7.9H30.2l4.8-7.9zm44.3-25.3l11.6-2.5L72.1 84l7.2-30.7zm11.4-4.4l-11.4 2.5-5.9-33.1 17.3 30.6zM35 24.3l-5-10.8h38.2L35 24.3z" fill="#dcdcdc"/></svg></svg></g></svg></svg></g></svg></g></svg>