<svg xmlns="http://www.w3.org/2000/svg" version="1.1" xmlns:xlink="http://www.w3.org/1999/xlink" xmlns:svgjs="http://svgjs.dev/svgjs" width="2000" height="207" viewBox="0 0 2000 207"><g transform="matrix(1,0,0,1,-1.2121131677038193,1.2237590189248522)"><svg viewBox="0 0 396 41" data-background-color="#282634" preserveAspectRatio="xMidYMid meet" height="207" width="2000" xmlns="http://www.w3.org/2000/svg" xmlns:xlink="http://www.w3.org/1999/xlink"><g id="tight-bounds" transform="matrix(1,0,0,1,0.23999840720534849,-0.24238705205758038)"><svg viewBox="0 0 395.52 41.48477410411514" height="41.48477410411514" width="395.52"><g><svg viewBox="0 0 458.29235844602164 48.06875749336411" height="41.48477410411514" width="395.52"><g transform="matrix(1,0,0,1,0,6.643366628967112)"><svg viewBox="0 0 395.52 34.78202423542989" height="34.78202423542989" width="395.52"><g><svg viewBox="0 0 395.52 34.78202423542989" height="34.78202423542989" width="395.52"><g><svg viewBox="0 0 395.52 34.78202423542989" height="34.78202423542989" width="395.52"><g transform="matrix(1,0,0,1,0,0)"><svg width="395.52" viewBox="3.25 -35.5 424.510009765625 37.209999084472656" height="34.78202423542989" data-palette-color="#ff4057"><g class="undefined-text-0" data-fill-palette-color="primary" id="text-0"><path d="M27.76-7.01L27.76 0 3.25 0 3.25-35.01 10.25-35.01 10.25-7.01 27.76-7.01ZM59.01-35.01L59.01-13.99Q59.01-11.08 57.91-8.53 56.81-5.98 54.9-4.09 53-2.2 50.45-1.1 47.9 0 44.99 0L44.99 0Q42.09 0 39.54-1.1 36.98-2.2 35.09-4.09 33.2-5.98 32.1-8.53 31-11.08 31-13.99L31-13.99 31-35.01 37.99-35.01 37.99-13.99Q37.99-12.55 38.54-11.28 39.08-10.01 40.04-9.06 40.99-8.11 42.27-7.56 43.55-7.01 44.99-7.01L44.99-7.01Q46.43-7.01 47.71-7.56 49-8.11 49.95-9.06 50.9-10.01 51.45-11.28 52-12.55 52-13.99L52-13.99 52-35.01 59.01-35.01ZM89.33-9.69L93.04-3.59Q90.6-1.49 87.57-0.37 84.54 0.76 81.29 0.76L81.29 0.76Q78.8 0.76 76.5 0.11 74.19-0.54 72.18-1.72 70.16-2.91 68.5-4.57 66.84-6.23 65.66-8.24 64.47-10.25 63.83-12.56 63.18-14.87 63.18-17.36L63.18-17.36Q63.18-19.85 63.83-22.17 64.47-24.49 65.66-26.5 66.84-28.52 68.5-30.18 70.16-31.84 72.18-33.02 74.19-34.2 76.5-34.85 78.8-35.5 81.29-35.5L81.29-35.5Q84.54-35.5 87.57-34.39 90.6-33.28 93.04-31.15L93.04-31.15 89.33-25.05Q87.79-26.71 85.69-27.6 83.59-28.49 81.29-28.49L81.29-28.49Q78.97-28.49 76.95-27.61 74.92-26.73 73.41-25.23 71.89-23.73 71.02-21.69 70.14-19.65 70.14-17.36L70.14-17.36Q70.14-15.06 71.02-13.05 71.89-11.04 73.41-9.52 74.92-8.01 76.95-7.13 78.97-6.25 81.29-6.25L81.29-6.25Q83.59-6.25 85.69-7.14 87.79-8.03 89.33-9.69L89.33-9.69ZM103.68-13.99L117.69-13.99 117.69-21Q117.69-22.44 117.14-23.72 116.59-25 115.64-25.95 114.69-26.9 113.41-27.45 112.13-28 110.69-28L110.69-28Q109.25-28 107.96-27.45 106.68-26.9 105.73-25.95 104.78-25 104.23-23.72 103.68-22.44 103.68-21L103.68-21 103.68-13.99ZM124.7-21L124.7 0 117.69 0 117.69-7.01 103.68-7.01 103.68 0 96.7 0 96.7-21Q96.7-23.9 97.8-26.45 98.89-29 100.79-30.91 102.68-32.81 105.23-33.91 107.78-35.01 110.69-35.01L110.69-35.01Q113.59-35.01 116.14-33.91 118.69-32.81 120.6-30.91 122.5-29 123.6-26.45 124.7-23.9 124.7-21L124.7-21ZM128.73-24.51L128.73-24.51Q128.73-26.68 129.56-28.59 130.39-30.49 131.81-31.92 133.24-33.35 135.15-34.18 137.05-35.01 139.22-35.01L139.22-35.01 155.29-35.01 155.29-28 139.22-28Q138.49-28 137.86-27.73 137.22-27.47 136.75-26.99 136.27-26.51 136-25.88 135.73-25.24 135.73-24.51L135.73-24.51Q135.73-23.78 136-23.13 136.27-22.49 136.75-22.01 137.22-21.53 137.86-21.26 138.49-21 139.22-21L139.22-21 146.23-21Q148.4-21 150.32-20.18 152.24-19.36 153.66-17.93 155.09-16.5 155.91-14.59 156.73-12.67 156.73-10.5L156.73-10.5Q156.73-8.33 155.91-6.42 155.09-4.52 153.66-3.09 152.24-1.66 150.32-0.83 148.4 0 146.23 0L146.23 0 130.68 0 130.68-7.01 146.23-7.01Q146.96-7.01 147.6-7.28 148.23-7.54 148.71-8.02 149.18-8.5 149.45-9.13 149.72-9.77 149.72-10.5L149.72-10.5Q149.72-11.23 149.45-11.87 149.18-12.5 148.71-12.98 148.23-13.45 147.6-13.72 146.96-13.99 146.23-13.99L146.23-13.99 139.22-13.99Q137.05-13.99 135.15-14.82 133.24-15.65 131.81-17.08 130.39-18.51 129.56-20.42 128.73-22.34 128.73-24.51Z" fill="#ff4057" data-fill-palette-color="primary"></path><path d="M180.97-13.99L180.97 0 173.96 0 173.96-35.01 198.48-35.01 198.48-28 180.97-28 180.97-21 191.47-21 191.47-13.99 180.97-13.99ZM209.56-2.49L209.56-2.49Q209.56-1.61 209.24-0.84 208.92-0.07 208.36 0.49 207.8 1.05 207.04 1.38 206.29 1.71 205.41 1.71L205.41 1.71Q204.55 1.71 203.78 1.38 203.01 1.05 202.44 0.49 201.87-0.07 201.54-0.84 201.21-1.61 201.21-2.49L201.21-2.49Q201.21-3.34 201.54-4.1 201.87-4.86 202.44-5.42 203.01-5.98 203.78-6.31 204.55-6.64 205.41-6.64L205.41-6.64Q206.29-6.64 207.04-6.31 207.8-5.98 208.36-5.42 208.92-4.86 209.24-4.1 209.56-3.34 209.56-2.49Z" fill="#dcdcdc" data-fill-palette-color="secondary"></path><path d="M219.4-13.99L233.41-13.99 233.41-21Q233.41-22.44 232.86-23.72 232.31-25 231.36-25.95 230.41-26.9 229.13-27.45 227.85-28 226.41-28L226.41-28Q224.97-28 223.68-27.45 222.4-26.9 221.45-25.95 220.5-25 219.95-23.72 219.4-22.44 219.4-21L219.4-21 219.4-13.99ZM240.42-21L240.42 0 233.41 0 233.41-7.01 219.4-7.01 219.4 0 212.42 0 212.42-21Q212.42-23.9 213.52-26.45 214.61-29 216.51-30.91 218.4-32.81 220.95-33.91 223.5-35.01 226.41-35.01L226.41-35.01Q229.31-35.01 231.86-33.91 234.41-32.81 236.32-30.91 238.22-29 239.32-26.45 240.42-23.9 240.42-21L240.42-21ZM274.55-17.5L274.55-17.5Q274.55-15.09 273.93-12.85 273.3-10.62 272.16-8.68 271.01-6.74 269.42-5.14 267.83-3.54 265.88-2.39 263.93-1.25 261.69-0.62 259.46 0 257.04 0L257.04 0 246.5 0 246.5-35.01 257.04-35.01Q259.46-35.01 261.69-34.39 263.93-33.76 265.88-32.62 267.83-31.47 269.42-29.87 271.01-28.27 272.16-26.33 273.3-24.39 273.93-22.16 274.55-19.92 274.55-17.5ZM267.54-17.5L267.54-17.5Q267.54-19.68 266.72-21.58 265.91-23.49 264.48-24.91 263.05-26.34 261.13-27.17 259.22-28 257.04-28L257.04-28 253.55-28 253.55-7.01 257.04-7.01Q259.22-7.01 261.13-7.82 263.05-8.64 264.48-10.07 265.91-11.5 266.72-13.42 267.54-15.33 267.54-17.5ZM293.2-28L286.19-28 286.19-13.99 293.2-13.99Q294.64-13.99 295.91-14.54 297.18-15.09 298.13-16.04 299.08-16.99 299.63-18.27 300.18-19.56 300.18-21L300.18-21Q300.18-22.44 299.63-23.72 299.08-25 298.13-25.95 297.18-26.9 295.91-27.45 294.64-28 293.2-28L293.2-28ZM286.19-7.01L286.19 0 279.18 0 279.18-35.01 293.2-35.01Q295.13-35.01 296.91-34.51 298.69-34.01 300.24-33.09 301.79-32.18 303.07-30.9 304.35-29.61 305.27-28.05 306.19-26.49 306.69-24.71 307.19-22.92 307.19-21L307.19-21Q307.19-19.19 306.74-17.48 306.28-15.77 305.44-14.23 304.6-12.7 303.38-11.4 302.16-10.11 300.64-9.16L300.64-9.16 304.53 0 297.08 0 294.03-7.06 286.19-7.01ZM318.78-35.01L318.78 0 311.77 0 311.77-35.01 318.78-35.01ZM331.86-13.99L345.88-13.99 345.88-21Q345.88-22.44 345.33-23.72 344.78-25 343.83-25.95 342.88-26.9 341.59-27.45 340.31-28 338.87-28L338.87-28Q337.43-28 336.15-27.45 334.87-26.9 333.92-25.95 332.96-25 332.41-23.72 331.86-22.44 331.86-21L331.86-21 331.86-13.99ZM352.88-21L352.88 0 345.88 0 345.88-7.01 331.86-7.01 331.86 0 324.88 0 324.88-21Q324.88-23.9 325.98-26.45 327.08-29 328.97-30.91 330.86-32.81 333.41-33.91 335.97-35.01 338.87-35.01L338.87-35.01Q341.78-35.01 344.33-33.91 346.88-32.81 348.78-30.91 350.69-29 351.79-26.45 352.88-23.9 352.88-21L352.88-21ZM386.96-35.01L386.96 0 379.47 0 365.97-23.05 365.97 0 358.96 0 358.96-35.01 366.46-35.01 379.96-11.94 379.96-35.01 386.96-35.01ZM427.76-17.36L427.76-17.36Q427.76-14.87 427.11-12.56 426.46-10.25 425.29-8.24 424.12-6.23 422.46-4.57 420.8-2.91 418.8-1.72 416.8-0.54 414.48 0.11 412.16 0.76 409.67 0.76L409.67 0.76Q407.18 0.76 404.87 0.11 402.56-0.54 400.55-1.72 398.53-2.91 396.87-4.57 395.21-6.23 394.03-8.24 392.85-10.25 392.2-12.56 391.55-14.87 391.55-17.36L391.55-17.36Q391.55-19.85 392.2-22.17 392.85-24.49 394.03-26.49 395.21-28.49 396.87-30.15 398.53-31.81 400.55-32.98 402.56-34.16 404.87-34.8 407.18-35.45 409.67-35.45L409.67-35.45Q412.16-35.45 414.48-34.8 416.8-34.16 418.8-32.98 420.8-31.81 422.46-30.15 424.12-28.49 425.29-26.49 426.46-24.49 427.11-22.17 427.76-19.85 427.76-17.36ZM420.8-17.36L420.8-17.36Q420.8-19.65 419.92-21.69 419.04-23.73 417.54-25.23 416.04-26.73 414-27.61 411.96-28.49 409.67-28.49L409.67-28.49Q407.35-28.49 405.32-27.61 403.3-26.73 401.78-25.23 400.27-23.73 399.39-21.69 398.51-19.65 398.51-17.36L398.51-17.36Q398.51-15.06 399.39-13.05 400.27-11.04 401.78-9.52 403.3-8.01 405.32-7.13 407.35-6.25 409.67-6.25L409.67-6.25Q411.96-6.25 414-7.13 416.04-8.01 417.54-9.52 419.04-11.04 419.92-13.05 420.8-15.06 420.8-17.36Z" fill="#ff4057" data-fill-palette-color="primary"></path></g></svg></g></svg></g></svg></g></svg></g><g transform="matrix(1,0,0,1,403.73120115340333,0)"><svg viewBox="0 0 54.561157292618326 48.06875749336411" height="48.06875749336411" width="54.561157292618326"><g><svg xmlns="http://www.w3.org/2000/svg" xmlns:xlink="http://www.w3.org/1999/xlink" version="1.1" x="0" y="0" viewBox="6.300000190734863 11.5 87.39999389648438 77" style="enable-background:new 0 0 100 100;" xml:space="preserve" height="48.06875749336411" width="54.561157292618326" class="icon-icon-0" data-fill-palette-color="accent" id="icon-0"><path d="M72.3 12.3L72.3 12.3 72.3 12.3l-0.4-0.8H28.2L6.3 50l21.8 38.5h43.7L93.7 50 72.3 12.3zM33.3 25.3L9.9 47.7l18.6-32.8L33.3 25.3zM70.7 14.8l6.4 35.7L36.9 25.8 70.7 14.8zM35.5 27.3l41 25.2-41 23.3V27.3zM77 54.5l-7.2 30.8-32.6-8.1L77 54.5zM33.5 75L9.9 50.5l23.6-22.7V75zM33.2 77.6l-4.6 7.7L11.5 55.1 33.2 77.6zM35 78.6l31.4 7.9H30.2L35 78.6zM79.3 53.3l11.6-2.5L72.1 84 79.3 53.3zM90.7 48.9l-11.4 2.5-5.9-33.1L90.7 48.9zM35 24.3l-5-10.8h38.2L35 24.3z" fill="#dcdcdc" data-fill-palette-color="accent"></path></svg></g></svg></g></svg></g><defs></defs></svg><rect width="395.52" height="41.48477410411514" fill="none" stroke="none" visibility="hidden"></rect></g></svg></g></svg>